<svg width="30" height="22" viewBox="0 0 30 22" fill="none" xmlns="http://www.w3.org/2000/svg">
<path d="M5.98439 0.393409C6.42373 0.832749 6.42373 1.54506 5.98439 1.9844C1.0052 6.96358 1.0052 15.0364 5.98439 20.0156C6.42373 20.455 6.42373 21.1673 5.98439 21.6066C5.54505 22.046 4.83274 22.046 4.3934 21.6066C-1.46447 15.7487 -1.46447 6.25127 4.3934 0.393409C4.83274 -0.0459312 5.54505 -0.0459312 5.98439 0.393409ZM25.6066 0.393409C31.4645 6.25127 31.4645 15.7487 25.6066 21.6066C25.1673 22.046 24.455 22.046 24.0156 21.6066C23.5763 21.1673 23.5763 20.455 24.0156 20.0156C28.9948 15.0364 28.9948 6.96358 24.0156 1.9844C23.5763 1.54506 23.5763 0.832749 24.0156 0.393409C24.455 -0.0459312 25.1673 -0.0459312 25.6066 0.393409ZM10.227 4.63605C10.6664 5.07539 10.6664 5.7877 10.227 6.22704C7.59099 8.86308 7.59099 13.1369 10.227 15.773C10.6664 16.2123 10.6664 16.9246 10.227 17.364C9.78769 17.8033 9.07538 17.8033 8.63604 17.364C5.12132 13.8493 5.12132 8.15077 8.63604 4.63605C9.07538 4.19671 9.78769 4.19671 10.227 4.63605ZM21.364 4.63605C24.8787 8.15077 24.8787 13.8493 21.364 17.364C20.9246 17.8033 20.2123 17.8033 19.773 17.364C19.3336 16.9246 19.3336 16.2123 19.773 15.773C22.409 13.1369 22.409 8.86308 19.773 6.22704C19.3336 5.7877 19.3336 5.07539 19.773 4.63605C20.2123 4.19671 20.9246 4.19671 21.364 4.63605ZM15 8.75001C16.2426 8.75001 17.25 9.75737 17.25 11C17.25 12.2427 16.2426 13.25 15 13.25C13.7574 13.25 12.75 12.2427 12.75 11C12.75 9.75737 13.7574 8.75001 15 8.75001Z" fill="url(#paint0_linear_19_131)"/>
<defs>
<linearGradient id="paint0_linear_19_131" x1="15" y1="0.0639038" x2="15" y2="21.9361" gradientUnits="userSpaceOnUse">
<stop stop-color="white" stop-opacity="0.33"/>
<stop offset="1" stop-color="#8D8D8D"/>
</linearGradient>
</defs>
</svg>
