<svg width="18" height="18" viewBox="0 0 18 18" fill="none" xmlns="http://www.w3.org/2000/svg">
<path fill-rule="evenodd" clip-rule="evenodd" d="M1.82324 1.82324L1.82567 1.82187C1.8276 1.82086 1.83092 1.81924 1.83596 1.81717C1.85774 1.80821 1.90611 1.79291 2.00266 1.77993C2.21339 1.7516 2.50739 1.75001 3 1.75001H5C5.49261 1.75001 5.78661 1.7516 5.99734 1.77993C6.09389 1.79291 6.14225 1.80821 6.16403 1.81717C6.16908 1.81924 6.17239 1.82086 6.17433 1.82187L6.17676 1.82324L6.17814 1.82568C6.17915 1.82761 6.18077 1.83093 6.18284 1.83597C6.1918 1.85775 6.20709 1.90611 6.22008 2.00267C6.24841 2.21339 6.25 2.5074 6.25 3.00001V7C6.25 7.4926 6.24841 7.7866 6.22008 7.9973C6.20709 8.0939 6.1918 8.1423 6.18284 8.164C6.18077 8.1691 6.17915 8.1724 6.17814 8.1743L6.17676 8.1768L6.17433 8.1781C6.17239 8.1792 6.16908 8.1808 6.16403 8.1828C6.14225 8.1918 6.09389 8.2071 5.99734 8.2201C5.78661 8.2484 5.49261 8.25 5 8.25H3C2.50739 8.25 2.21339 8.2484 2.00266 8.2201C1.90611 8.2071 1.85774 8.1918 1.83596 8.1828C1.83092 8.1808 1.8276 8.1792 1.82567 8.1781L1.82324 8.1768L1.82186 8.1743C1.82085 8.1724 1.81923 8.1691 1.81716 8.164C1.8082 8.1423 1.79291 8.0939 1.77992 7.9973C1.75159 7.7866 1.75 7.4926 1.75 7V3.00001C1.75 2.5074 1.75159 2.21339 1.77992 2.00267C1.79291 1.90611 1.8082 1.85775 1.81716 1.83597C1.81923 1.83093 1.82085 1.82761 1.82186 1.82568L1.82324 1.82324ZM2.95525 0.250003C2.97013 0.250013 2.98504 0.250013 3 0.250013H5C5.01496 0.250013 5.02987 0.250013 5.04475 0.250003C5.47756 0.249953 5.8744 0.249913 6.19721 0.293313C6.55269 0.341103 6.92841 0.453553 7.2374 0.762573C7.5465 1.07159 7.6589 1.44732 7.7067 1.8028C7.7501 2.12561 7.7501 2.52245 7.75 2.95526C7.75 2.97014 7.75 2.98505 7.75 3.00001V7C7.75 7.015 7.75 7.0299 7.75 7.0448C7.7501 7.4776 7.7501 7.8744 7.7067 8.1972C7.6589 8.5527 7.5465 8.9284 7.2374 9.2374C6.92841 9.5465 6.55269 9.6589 6.19721 9.7067C5.87439 9.7501 5.47756 9.7501 5.04474 9.75C5.02987 9.75 5.01496 9.75 5 9.75H3C2.98504 9.75 2.97013 9.75 2.95526 9.75C2.52244 9.7501 2.1256 9.7501 1.80279 9.7067C1.44731 9.6589 1.07159 9.5465 0.762564 9.2374C0.453544 8.9284 0.341094 8.5527 0.293304 8.1972C0.249904 7.8744 0.249944 7.4776 0.250004 7.0448C0.250004 7.0299 0.250004 7.015 0.250004 7V3.00001C0.250004 2.98505 0.250004 2.97013 0.250004 2.95526C0.249944 2.52244 0.249904 2.12561 0.293304 1.8028C0.341094 1.44732 0.453544 1.07159 0.762564 0.762573C1.07159 0.453553 1.44731 0.341103 1.80279 0.293313C2.1256 0.249913 2.52243 0.249953 2.95525 0.250003ZM11.8257 1.82187L11.8232 1.82324L11.8219 1.82568C11.8209 1.82761 11.8192 1.83093 11.8172 1.83597C11.8082 1.85775 11.7929 1.90611 11.7799 2.00267C11.7516 2.21339 11.75 2.5074 11.75 3.00001C11.75 3.49261 11.7516 3.78662 11.7799 3.99734C11.7929 4.0939 11.8082 4.14226 11.8172 4.16404C11.818 4.16606 11.8194 4.1693 11.8194 4.1693C11.8204 4.17152 11.8219 4.17434 11.8219 4.17434L11.8232 4.17677L11.8257 4.17815C11.8276 4.17916 11.8309 4.18077 11.836 4.18285C11.8577 4.19181 11.9061 4.2071 12.0027 4.22008C12.2134 4.24841 12.5074 4.25001 13 4.25001H15C15.4926 4.25001 15.7866 4.24841 15.9973 4.22008C16.0939 4.2071 16.1423 4.19181 16.164 4.18285C16.1691 4.18077 16.1724 4.17916 16.1743 4.17815L16.1768 4.17677L16.1781 4.17434C16.1791 4.1724 16.1808 4.16909 16.1828 4.16404C16.1918 4.14226 16.2071 4.0939 16.2201 3.99734C16.2484 3.78662 16.25 3.49261 16.25 3.00001C16.25 2.5074 16.2484 2.21339 16.2201 2.00267C16.2071 1.90611 16.1918 1.85775 16.1828 1.83597C16.1808 1.83093 16.1791 1.82761 16.1781 1.82568L16.1768 1.82324L16.1743 1.82187C16.1724 1.82086 16.1691 1.81924 16.164 1.81717C16.1423 1.80821 16.0939 1.79291 15.9973 1.77993C15.7866 1.7516 15.4926 1.75001 15 1.75001H13C12.5074 1.75001 12.2134 1.7516 12.0027 1.77993C11.9061 1.79291 11.8577 1.80821 11.836 1.81717C11.8309 1.81924 11.8276 1.82086 11.8257 1.82187ZM12.9553 0.250003H15.0447C15.4776 0.249953 15.8744 0.249913 16.1972 0.293313C16.5527 0.341103 16.9284 0.453553 17.2374 0.762573C17.5465 1.07159 17.6589 1.44732 17.7067 1.8028C17.7501 2.12561 17.7501 2.52244 17.75 2.95526V3.04475C17.7501 3.47757 17.7501 3.8744 17.7067 4.19721C17.6589 4.5527 17.5465 4.92842 17.2374 5.23744C16.9284 5.54647 16.5527 5.65891 16.1972 5.70671C15.8744 5.75011 15.4776 5.75006 15.0447 5.75001H12.9553C12.5224 5.75006 12.1256 5.75011 11.8028 5.70671C11.4473 5.65891 11.0716 5.54647 10.7626 5.23744C10.4535 4.92842 10.3411 4.5527 10.2933 4.19721C10.2499 3.8744 10.2499 3.47757 10.25 3.04475C10.25 3.02988 10.25 3.01496 10.25 3.00001C10.25 2.98505 10.25 2.97014 10.25 2.95526C10.2499 2.52245 10.2499 2.12561 10.2933 1.8028C10.3411 1.44732 10.4535 1.07159 10.7626 0.762573C11.0716 0.453553 11.4473 0.341103 11.8028 0.293313C12.1256 0.249913 12.5224 0.249953 12.9553 0.250003ZM12.9553 8.25H15.0447C15.4776 8.25 15.8744 8.2499 16.1972 8.2933C16.5527 8.3411 16.9284 8.4535 17.2374 8.7626C17.5465 9.0716 17.6589 9.4473 17.7067 9.8028C17.7501 10.1256 17.7501 10.5224 17.75 10.9553V15.0448C17.7501 15.4776 17.7501 15.8744 17.7067 16.1972C17.6589 16.5527 17.5465 16.9284 17.2374 17.2374C16.9284 17.5465 16.5527 17.6589 16.1972 17.7067C15.8744 17.7501 15.4776 17.7501 15.0447 17.75H12.9553C12.5224 17.7501 12.1256 17.7501 11.8028 17.7067C11.4473 17.6589 11.0716 17.5465 10.7626 17.2374C10.4535 16.9284 10.3411 16.5527 10.2933 16.1972C10.2499 15.8744 10.2499 15.4776 10.25 15.0448V11C10.25 10.9851 10.25 10.9701 10.25 10.9553C10.2499 10.5224 10.2499 10.1256 10.2933 9.8028C10.3411 9.4473 10.4535 9.0716 10.7626 8.7626C11.0716 8.4535 11.4473 8.3411 11.8028 8.2933C12.1256 8.2499 12.5224 8.25 12.9553 8.25ZM11.8257 9.8219L11.8232 9.8232L11.8219 9.8257C11.8209 9.8276 11.8192 9.8309 11.8172 9.836C11.8082 9.8578 11.7929 9.9061 11.7799 10.0027C11.7516 10.2134 11.75 10.5074 11.75 11V15C11.75 15.4926 11.7516 15.7866 11.7799 15.9973C11.7929 16.0939 11.8082 16.1423 11.8172 16.164C11.8192 16.1691 11.8209 16.1724 11.8219 16.1743L11.8232 16.1768L11.8257 16.1781C11.8276 16.1792 11.8309 16.1808 11.836 16.1828C11.8577 16.1918 11.9061 16.2071 12.0027 16.2201C12.2134 16.2484 12.5074 16.25 13 16.25H15C15.4926 16.25 15.7866 16.2484 15.9973 16.2201C16.0939 16.2071 16.1423 16.1918 16.164 16.1828C16.1691 16.1808 16.1724 16.1792 16.1743 16.1781L16.1768 16.1768L16.1781 16.1743C16.1791 16.1724 16.1808 16.1691 16.1828 16.164C16.1918 16.1423 16.2071 16.0939 16.2201 15.9973C16.2484 15.7866 16.25 15.4926 16.25 15V11C16.25 10.5074 16.2484 10.2134 16.2201 10.0027C16.2071 9.9061 16.1918 9.8578 16.1828 9.836C16.1816 9.833 16.1805 9.8306 16.1797 9.8287L16.1781 9.8257L16.1768 9.8232L16.1743 9.8219C16.1724 9.8209 16.1691 9.8192 16.164 9.8172C16.1423 9.8082 16.0939 9.7929 15.9973 9.7799C15.7866 9.7516 15.4926 9.75 15 9.75H13C12.5074 9.75 12.2134 9.7516 12.0027 9.7799C11.9061 9.7929 11.8577 9.8082 11.836 9.8172C11.8309 9.8192 11.8276 9.8209 11.8257 9.8219ZM1.82567 13.8219L1.82324 13.8232L1.82186 13.8257C1.82085 13.8276 1.81923 13.8309 1.81716 13.836C1.8082 13.8578 1.7929 13.9061 1.77992 14.0027C1.75159 14.2134 1.75 14.5074 1.75 15C1.75 15.4926 1.75159 15.7866 1.77992 15.9973C1.7929 16.0939 1.8082 16.1423 1.81716 16.164C1.81923 16.1691 1.82085 16.1724 1.82186 16.1743L1.82324 16.1768L1.82567 16.1781C1.8276 16.1792 1.83092 16.1808 1.83596 16.1828C1.85774 16.1918 1.90611 16.2071 2.00266 16.2201C2.21339 16.2484 2.50739 16.25 3 16.25H5C5.49261 16.25 5.78661 16.2484 5.99734 16.2201C6.09389 16.2071 6.14225 16.1918 6.16403 16.1828C6.16658 16.1818 6.1704 16.1801 6.1704 16.1801L6.17433 16.1781L6.17676 16.1768L6.17814 16.1743L6.1796 16.1714C6.18049 16.1695 6.18158 16.1671 6.18284 16.164C6.1918 16.1423 6.20709 16.0939 6.22008 15.9973C6.24841 15.7866 6.25 15.4926 6.25 15C6.25 14.5074 6.24841 14.2134 6.22008 14.0027C6.20709 13.9061 6.1918 13.8578 6.18284 13.836C6.18077 13.8309 6.17915 13.8276 6.17814 13.8257L6.17676 13.8232L6.17433 13.8219C6.17239 13.8209 6.16908 13.8192 6.16403 13.8172C6.14225 13.8082 6.09389 13.7929 5.99734 13.7799C5.78661 13.7516 5.49261 13.75 5 13.75H3C2.50739 13.75 2.21339 13.7516 2.00266 13.7799C1.90611 13.7929 1.85774 13.8082 1.83596 13.8172C1.83092 13.8192 1.8276 13.8209 1.82567 13.8219ZM2.95526 12.25H5.04474C5.47756 12.25 5.87439 12.2499 6.19721 12.2933C6.55269 12.3411 6.92841 12.4535 7.2374 12.7626C7.5465 13.0716 7.6589 13.4473 7.7067 13.8028C7.7501 14.1256 7.7501 14.5224 7.75 14.9553V15.0448C7.7501 15.4776 7.7501 15.8744 7.7067 16.1972C7.6589 16.5527 7.5465 16.9284 7.2374 17.2374C6.92841 17.5465 6.55269 17.6589 6.19721 17.7067C5.87439 17.7501 5.47756 17.7501 5.04474 17.75H2.95525C2.52244 17.7501 2.1256 17.7501 1.80279 17.7067C1.44731 17.6589 1.07159 17.5465 0.762564 17.2374C0.453544 16.9284 0.341094 16.5527 0.293304 16.1972C0.249904 15.8744 0.249944 15.4776 0.250004 15.0448V14.9553C0.249944 14.5224 0.249904 14.1256 0.293304 13.8028C0.341094 13.4473 0.453544 13.0716 0.762564 12.7626C1.07159 12.4535 1.44731 12.3411 1.80279 12.2933C2.1256 12.2499 2.52244 12.25 2.95526 12.25Z" fill="#BCBCBC"/>
</svg>
