<svg width="194" height="71" viewBox="0 0 194 71" fill="none" xmlns="http://www.w3.org/2000/svg">
<path d="M55.8 70H44V44H55.4V46.4H46.8V55.6H53.8V58H46.8V67.6H55.8V70ZM74.2925 70H71.3725L66.8525 59.88L62.3325 70H59.4125L65.4125 56.6L59.8125 44H62.7325L67.0125 53.68L71.3725 44H74.2925L68.4925 56.96L74.2925 70ZM79.2984 44H88.0984V46.4H82.0984V65.56C82.0984 66.3067 82.2851 66.9333 82.6584 67.44C83.0584 67.9467 83.6051 68.2 84.2984 68.2C85.0184 68.2 85.5651 67.96 85.9384 67.48C86.3118 66.9733 86.4984 66.3333 86.4984 65.56V60.8H89.2984V65.4C89.2984 67.08 88.8451 68.3733 87.9384 69.28C87.0584 70.16 85.8584 70.6 84.3384 70.6C82.8184 70.6 81.5918 70.16 80.6584 69.28C79.7518 68.3733 79.2984 67.08 79.2984 65.4V44ZM104.698 65V62.8H107.498V65C107.498 66.7867 106.952 68.1733 105.858 69.16C104.765 70.12 103.125 70.6 100.938 70.6C98.7518 70.6 97.0984 70.12 95.9784 69.16C94.8584 68.1733 94.2984 66.7867 94.2984 65V49C94.2984 47.2133 94.8451 45.84 95.9384 44.88C97.0318 43.8933 98.6718 43.4 100.858 43.4C103.045 43.4 104.698 43.8933 105.818 44.88C106.938 45.84 107.498 47.2133 107.498 49V57.8H97.0984V65C97.0984 67.1333 98.3651 68.2 100.898 68.2C103.432 68.2 104.698 67.1333 104.698 65ZM97.0984 49V55.4H104.698V49C104.698 46.8667 103.432 45.8 100.898 45.8C98.3651 45.8 97.0984 46.8667 97.0984 49ZM117.698 70H114.898V44H116.098L117.098 46.6C118.378 44.4667 120.152 43.4 122.418 43.4C126.338 43.4 128.298 45.2667 128.298 49V70H125.498V49C125.498 47.9867 125.272 47.2 124.818 46.64C124.392 46.08 123.592 45.8 122.418 45.8C121.245 45.8 120.165 46.2533 119.178 47.16C118.192 48.0667 117.698 48.9467 117.698 49.8V70ZM135.314 44H144.114V46.4H138.114V65.56C138.114 66.3067 138.301 66.9333 138.674 67.44C139.074 67.9467 139.621 68.2 140.314 68.2C141.034 68.2 141.581 67.96 141.954 67.48C142.327 66.9733 142.514 66.3333 142.514 65.56V60.8H145.314V65.4C145.314 67.08 144.861 68.3733 143.954 69.28C143.074 70.16 141.874 70.6 140.354 70.6C138.834 70.6 137.607 70.16 136.674 69.28C135.767 68.3733 135.314 67.08 135.314 65.4V44Z" fill="url(#paint0_angular_19_10)" fill-opacity="0.91"/>
<path d="M6.78838 51.6138L1.94697 49.6996C1.1651 49.3905 0.373926 50.1256 0.62486 50.9281L2.93003 58.2996C12.622 61.5637 17.8618 61.4912 26.895 58.2996L29.3215 50.9772C29.5894 50.169 28.789 49.4171 27.999 49.735L23.3354 51.6114C22.889 51.791 22.378 51.6273 22.1192 51.2217L15.8115 41.3399C15.4153 40.7191 14.5067 40.7251 14.1187 41.351L8.00598 51.2108C7.75105 51.622 7.2383 51.7917 6.78838 51.6138Z" fill="url(#paint1_angular_19_10)"/>
<path d="M26.9388 61.1149C17.424 64.0638 12.1503 64.0791 2.97376 61.1149V67.4934C12.7347 72.0331 23.0175 69.3849 26.9388 67.4934V61.1149Z" fill="url(#paint2_angular_19_10)"/>
<defs>
<radialGradient id="paint0_angular_19_10" cx="0" cy="0" r="1" gradientUnits="userSpaceOnUse" gradientTransform="translate(111 54.5) rotate(63.4349) scale(68.2001 156.758)">
<stop stop-color="white"/>
<stop offset="0.000115023" stop-color="#606060"/>
</radialGradient>
<radialGradient id="paint1_angular_19_10" cx="0" cy="0" r="1" gradientUnits="userSpaceOnUse" gradientTransform="translate(15 55) rotate(90) scale(15)">
<stop stop-color="white"/>
<stop offset="1" stop-color="white" stop-opacity="0"/>
</radialGradient>
<radialGradient id="paint2_angular_19_10" cx="0" cy="0" r="1" gradientUnits="userSpaceOnUse" gradientTransform="translate(15 55) rotate(90) scale(15)">
<stop stop-color="white"/>
<stop offset="1" stop-color="white" stop-opacity="0"/>
</radialGradient>
</defs>
</svg>
