<svg width="36" height="36" viewBox="0 0 36 36" fill="none" xmlns="http://www.w3.org/2000/svg">
<path d="M14.7012 12.3347C16.4806 12.3347 17.9283 10.887 17.9283 9.10758C17.9283 7.32817 16.4806 5.88049 14.7012 5.88049C12.9218 5.88049 11.4741 7.32817 11.4741 9.10758C11.4741 10.887 12.9218 12.3347 14.7012 12.3347ZM14.7012 7.31476C15.6898 7.31476 16.494 8.11902 16.494 9.10758C16.494 10.0962 15.6898 10.9004 14.7012 10.9004C13.7126 10.9004 12.9084 10.0962 12.9084 9.10758C12.9084 8.11902 13.7126 7.31476 14.7012 7.31476Z" fill="url(#paint0_linear_19_146)"/>
<path d="M33.3825 0H2.61752C2.22145 0 1.90039 0.32106 1.90039 0.717131V35.2829C1.90039 35.6789 2.22145 36 2.61752 36H33.3825C33.7785 36 34.0996 35.6789 34.0996 35.2829V0.717131C34.0996 0.32106 33.7785 0 33.3825 0ZM32.6653 34.5657H3.33465V1.43426H32.6653V34.5657Z" fill="url(#paint1_linear_19_146)"/>
<path d="M5.45016 26.3904H30.5498C30.9458 26.3904 31.2669 26.0694 31.2669 25.6733V3.58566C31.2669 3.18959 30.9458 2.86853 30.5498 2.86853H5.45016C5.05409 2.86853 4.73303 3.18959 4.73303 3.58566V25.6567V25.6733C4.73303 26.0694 5.05409 26.3904 5.45016 26.3904ZM10.1246 24.9534L19.4701 15.6078L28.7854 24.9231L10.1246 24.9534ZM6.1673 4.30279H29.8326V23.9419L19.9772 14.0865C19.6971 13.8065 19.243 13.8065 18.9629 14.0865L14.327 18.7225L8.21851 12.6141C7.93847 12.334 7.48438 12.334 7.20427 12.6141L6.1673 13.6511V4.30279ZM6.1673 15.6796L7.71149 14.1353L13.3129 19.7367L8.11431 24.9352L6.1673 24.9383V15.6796Z" fill="url(#paint2_linear_19_146)"/>
<path d="M23.6961 23.1326C23.8361 23.2726 24.0197 23.3426 24.2032 23.3426C24.3867 23.3426 24.5703 23.2726 24.7103 23.1326C24.9904 22.8525 24.9904 22.3984 24.7103 22.1183L22.3798 19.7878C22.0997 19.5077 21.6456 19.5077 21.3655 19.7878C21.0855 20.0679 21.0855 20.522 21.3655 20.802L23.6961 23.1326Z" fill="url(#paint3_linear_19_146)"/>
<path d="M19.214 18.6505L19.6443 19.0808C19.7843 19.2209 19.9678 19.2909 20.1514 19.2909C20.3349 19.2909 20.5185 19.2209 20.6585 19.0808C20.9386 18.8007 20.9386 18.3466 20.6585 18.0666L20.2282 17.6363C19.9481 17.3563 19.494 17.3563 19.214 17.6363C18.934 17.9164 18.934 18.3705 19.214 18.6505Z" fill="url(#paint4_linear_19_146)"/>
<defs>
<linearGradient id="paint0_linear_19_146" x1="14.7012" y1="5.88049" x2="14.7012" y2="12.3347" gradientUnits="userSpaceOnUse">
<stop stop-color="white"/>
<stop offset="1" stop-color="white" stop-opacity="0.2"/>
</linearGradient>
<linearGradient id="paint1_linear_19_146" x1="18" y1="0" x2="18" y2="36" gradientUnits="userSpaceOnUse">
<stop stop-color="white"/>
<stop offset="1" stop-color="white" stop-opacity="0.2"/>
</linearGradient>
<linearGradient id="paint2_linear_19_146" x1="18" y1="2.86853" x2="18" y2="26.3904" gradientUnits="userSpaceOnUse">
<stop stop-color="white"/>
<stop offset="1" stop-color="white" stop-opacity="0.2"/>
</linearGradient>
<linearGradient id="paint3_linear_19_146" x1="23.0379" y1="19.5778" x2="23.0379" y2="23.3426" gradientUnits="userSpaceOnUse">
<stop stop-color="white"/>
<stop offset="1" stop-color="white" stop-opacity="0.2"/>
</linearGradient>
<linearGradient id="paint4_linear_19_146" x1="19.9363" y1="17.4263" x2="19.9363" y2="19.2909" gradientUnits="userSpaceOnUse">
<stop stop-color="white"/>
<stop offset="1" stop-color="white" stop-opacity="0.2"/>
</linearGradient>
</defs>
</svg>
