<svg width="19" height="23" viewBox="0 0 19 23" fill="none" xmlns="http://www.w3.org/2000/svg">
<path d="M16.1095 13.75C17.3906 13.75 18.4368 14.7574 18.4972 16.024L18.5 16.1399V16.5625C18.5 18.675 17.4078 20.2564 15.7324 21.2764C14.0849 22.2794 11.8703 22.75 9.5 22.75C7.12968 22.75 4.91512 22.2794 3.26761 21.2764C1.64296 20.2873 0.566729 18.7703 0.502994 16.7531L0.5 16.5625V16.14C0.5 14.8583 1.50853 13.8131 2.77477 13.7528L2.89057 13.75H16.1095ZM9.5 0.25C12.6066 0.25 15.125 2.7684 15.125 5.875C15.125 8.98158 12.6066 11.5 9.5 11.5C6.39342 11.5 3.875 8.98158 3.875 5.875C3.875 2.7684 6.39342 0.25 9.5 0.25Z" fill="#BCBCBC"/>
</svg>
